<svg width="24" height="24" viewBox="0 0 24 24" fill="none" xmlns="http://www.w3.org/2000/svg">
<path d="M17.63 6.035C17.595 6.02 17.57 6.01 17.545 6.01C17.545 6.01 17.535 6.01 17.515 6.01C17.425 6.005 17.375 6.01 17.35 6.01C17.335 6.01 17.325 6.01 17.325 6.01C17.315 6.01 17.305 6.01 17.3 6.01C17.25 6.02 17.13 6.03 16.89 6.07C16.775 6.09 16.665 6.105 16.55 6.125C16.41 6.15 16.27 6.165 16.13 6.19C16.055 6.2 15.985 6.215 15.91 6.225C15.825 6.24 15.745 6.25 15.66 6.265C15.585 6.275 15.515 6.29 15.44 6.3C15.36 6.315 15.28 6.325 15.2 6.34C15.12 6.355 15.04 6.365 14.96 6.375C14.88 6.385 14.805 6.4 14.725 6.415C14.645 6.43 14.565 6.44 14.485 6.45C14.405 6.46 14.33 6.475 14.25 6.485C14.17 6.5 14.09 6.51 14.005 6.525C13.885 6.545 13.765 6.56 13.645 6.58C13.57 6.59 13.49 6.605 13.415 6.62C13.34 6.63 13.27 6.64 13.195 6.655C13.11 6.67 13.025 6.68 12.945 6.695C12.87 6.705 12.8 6.715 12.725 6.73C12.64 6.745 12.555 6.755 12.475 6.77C12.4 6.78 12.33 6.795 12.255 6.805C12.175 6.815 12.1 6.83 12.02 6.84C11.94 6.85 11.865 6.865 11.785 6.88C11.705 6.895 11.625 6.905 11.54 6.92C11.465 6.93 11.385 6.945 11.31 6.955C11.23 6.97 11.15 6.98 11.065 6.995C10.985 7.005 10.91 7.02 10.83 7.03C10.745 7.045 10.66 7.055 10.58 7.07C10.465 7.09 10.345 7.105 10.23 7.125C10.105 7.15 9.975 7.155 9.85 7.2C9.69 7.26 9.58 7.37 9.51 7.525C9.475 7.605 9.465 7.69 9.465 7.775C9.465 9.765 9.465 11.76 9.465 13.75H8.425C8.245 13.75 8.07 13.76 7.895 13.79C7.61 13.835 7.345 13.925 7.1 14.065C6.75 14.26 6.47 14.53 6.265 14.87C6.185 15.005 6.125 15.145 6.075 15.295C6.03 15.435 6.005 15.58 5.99 15.725C5.98 15.835 5.98 15.945 5.995 16.055C6.005 16.13 6.015 16.205 6.03 16.28C6.05 16.38 6.075 16.475 6.11 16.57C6.18 16.755 6.275 16.925 6.39 17.08C6.595 17.355 6.845 17.565 7.145 17.725C7.295 17.805 7.455 17.87 7.62 17.915C7.855 17.985 8.035 17.995 8.075 18C8.115 18 8.15 18 8.175 18C8.245 18 8.315 18 8.38 18C8.415 18 8.465 18 8.525 18C8.71 17.99 8.845 17.955 8.915 17.935C9.13 17.88 9.34 17.8 9.535 17.685C9.74 17.57 9.925 17.425 10.08 17.25C10.265 17.05 10.41 16.825 10.505 16.57C10.555 16.435 10.59 16.3 10.61 16.16C10.63 16.045 10.635 15.93 10.635 15.815C10.635 14.095 10.635 12.38 10.635 10.66V10.625C10.635 10.625 10.635 10.6 10.64 10.585L16.83 9.605C16.83 9.615 16.83 9.63 16.83 9.64C16.83 10.68 16.83 11.72 16.83 12.76C16.505 12.76 16.18 12.76 15.855 12.76C15.725 12.76 15.59 12.76 15.46 12.77C15.38 12.775 15.295 12.79 15.215 12.805C15.095 12.825 14.98 12.855 14.87 12.895C14.75 12.935 14.63 12.985 14.515 13.045C14.3 13.16 14.105 13.3 13.935 13.475C13.77 13.645 13.635 13.835 13.535 14.045C13.475 14.17 13.43 14.295 13.4 14.43C13.34 14.66 13.335 14.89 13.36 15.125C13.375 15.255 13.405 15.385 13.445 15.51C13.5 15.675 13.57 15.825 13.665 15.97C13.78 16.15 13.92 16.315 14.085 16.455C14.26 16.605 14.455 16.725 14.665 16.82C14.785 16.875 14.915 16.915 15.045 16.95C15.25 17.005 15.455 17.03 15.665 17.03C15.795 17.03 15.93 17.02 16.06 17C16.18 16.98 16.295 16.955 16.41 16.92C16.55 16.875 16.685 16.82 16.81 16.755C17.05 16.63 17.26 16.47 17.44 16.275C17.62 16.08 17.76 15.86 17.855 15.61C17.855 15.61 17.925 15.43 17.97 15.18C17.975 15.15 17.98 15.12 17.98 15.12C17.98 15.095 17.98 15.075 17.98 15.065V6.485C17.98 6.485 17.97 6.44 17.965 6.415C17.91 6.23 17.79 6.105 17.61 6.035H17.63Z" fill="#FAFAFA"/>
<path d="M3.5 0H1C0.45 0 0 0.45 0 1V23C0 23.55 0.45 24 1 24H3.5C3.775 24 4 23.775 4 23.5V22.5C4 22.225 3.775 22 3.5 22H2.5C2.225 22 2 21.775 2 21.5V2.5C2 2.225 2.225 2 2.5 2H3.5C3.775 2 4 1.775 4 1.5V0.5C4 0.225 3.775 0 3.5 0Z" fill="#FAFAFA"/>
<path d="M23 0H20.5C20.225 0 20 0.225 20 0.5V1.5C20 1.775 20.225 2 20.5 2H21.5C21.775 2 22 2.225 22 2.5V21.5C22 21.775 21.775 22 21.5 22H20.5C20.225 22 20 22.225 20 22.5V23.5C20 23.775 20.225 24 20.5 24H23C23.555 24 24 23.55 24 23V1C24 0.45 23.55 0 23 0Z" fill="#FAFAFA"/>
</svg>
