<?xml version="1.0" encoding="UTF-8"?>
<svg id="Layer_2" data-name="Layer 2" xmlns="http://www.w3.org/2000/svg" fill="currentColor" viewBox="0 0 48 48">
  <g id="Layer_1-2" data-name="Layer 1">
    <g>
      <path d="m35.26,12.07c-.07-.03-.12-.05-.17-.05,0,0-.02,0-.06,0-.18-.01-.28,0-.33,0-.03,0-.05,0-.05,0-.02,0-.04,0-.05,0-.1.02-.34.04-.82.12-.23.04-.45.07-.68.11-.28.05-.56.08-.84.13-.15.02-.29.05-.44.07-.17.03-.33.05-.5.08-.15.02-.29.05-.44.07-.16.03-.32.05-.48.08-.16.03-.32.05-.48.07-.16.02-.31.05-.47.08-.16.03-.32.05-.48.07-.16.02-.31.05-.47.07-.16.03-.32.05-.49.08-.24.04-.48.07-.72.11-.15.02-.31.05-.46.08-.15.02-.29.04-.44.07-.17.03-.34.05-.5.08-.15.02-.29.04-.44.07-.17.03-.34.05-.5.08-.15.02-.29.05-.44.07-.16.02-.31.05-.47.07-.16.02-.31.05-.47.08-.16.03-.32.05-.49.08-.15.02-.31.05-.46.07-.16.03-.32.05-.49.08-.16.02-.31.05-.47.07-.17.03-.34.05-.5.08-.23.04-.47.07-.7.11-.25.05-.51.06-.76.15-.32.12-.54.34-.68.65-.07.16-.09.33-.09.5,0,3.98,0,7.97,0,11.95,0,0,0,0,0,0h-2.08c-.36,0-.71.02-1.06.08-.57.09-1.1.27-1.59.55-.7.39-1.26.93-1.67,1.61-.16.27-.28.55-.38.85-.09.28-.14.57-.17.86-.02.22-.02.44.01.66.02.15.04.3.07.45.04.2.09.39.16.58.14.37.33.71.56,1.02.41.55.91.97,1.51,1.29.3.16.62.29.95.38.47.14.83.16.91.17.08,0,.15,0,.2,0,.14,0,.28,0,.41,0,.07,0,.17,0,.29,0,.37-.02.64-.09.78-.13.43-.11.85-.27,1.24-.5.41-.23.78-.52,1.09-.87.37-.4.66-.85.85-1.36.1-.27.17-.54.21-.82.04-.23.05-.46.05-.69,0-3.44,0-6.87,0-10.31v-.07s0-.05.01-.08l12.38-1.96s0,0,0,0c0,.02,0,.05,0,.07,0,2.08,0,4.16,0,6.24-.65,0-1.3,0-1.95,0-.26,0-.53,0-.79.02-.16.01-.33.04-.49.07-.24.04-.47.1-.69.18-.24.08-.48.18-.71.3-.43.23-.82.51-1.16.86-.33.34-.6.72-.8,1.14-.12.25-.21.5-.27.77-.12.46-.13.92-.08,1.39.03.26.09.52.17.77.11.33.25.63.44.92.23.36.51.69.84.97.35.3.74.54,1.16.73.24.11.5.19.76.26.41.11.82.16,1.24.16.26,0,.53-.02.79-.06.24-.04.47-.09.7-.16.28-.09.55-.2.8-.33.48-.25.9-.57,1.26-.96.36-.39.64-.83.83-1.33,0,0,.14-.36.23-.86.01-.06.02-.12.02-.12,0-.05,0-.09,0-.11V12.97s-.02-.09-.03-.14c-.11-.37-.35-.62-.71-.76Z"/>
      <path d="m7,0H2C.9,0,0,.9,0,2v44c0,1.1.9,2,2,2h5c.55,0,1-.45,1-1v-2c0-.55-.45-1-1-1h-2c-.55,0-1-.45-1-1V5c0-.55.45-1,1-1h2c.55,0,1-.45,1-1V1c0-.55-.45-1-1-1Z"/>
      <path d="m46,0h-5c-.55,0-1,.45-1,1v2c0,.55.45,1,1,1h2c.55,0,1,.45,1,1v38c0,.55-.45,1-1,1h-2c-.55,0-1,.45-1,1v2c0,.55.45,1,1,1h5c1.11,0,2-.9,2-2V2c0-1.1-.9-2-2-2Z"/>
    </g>
  </g>
</svg>