<svg width="179" height="48" viewBox="0 0 179 48" fill="none" xmlns="http://www.w3.org/2000/svg">
<path d="M35.26 12.07C35.19 12.04 35.14 12.02 35.09 12.02C35.09 12.02 35.07 12.02 35.03 12.02C34.85 12.01 34.75 12.02 34.7 12.02C34.67 12.02 34.65 12.02 34.65 12.02C34.63 12.02 34.61 12.02 34.6 12.02C34.5 12.04 34.26 12.06 33.78 12.14C33.55 12.18 33.33 12.21 33.1 12.25C32.82 12.3 32.54 12.33 32.26 12.38C32.11 12.4 31.97 12.43 31.82 12.45C31.65 12.48 31.49 12.5 31.32 12.53C31.17 12.55 31.03 12.58 30.88 12.6C30.72 12.63 30.56 12.65 30.4 12.68C30.24 12.71 30.08 12.73 29.92 12.75C29.76 12.77 29.61 12.8 29.45 12.83C29.29 12.86 29.13 12.88 28.97 12.9C28.81 12.92 28.66 12.95 28.5 12.97C28.34 13 28.18 13.02 28.01 13.05C27.77 13.09 27.53 13.12 27.29 13.16C27.14 13.18 26.98 13.21 26.83 13.24C26.68 13.26 26.54 13.28 26.39 13.31C26.22 13.34 26.05 13.36 25.89 13.39C25.74 13.41 25.6 13.43 25.45 13.46C25.28 13.49 25.11 13.51 24.95 13.54C24.8 13.56 24.66 13.59 24.51 13.61C24.35 13.63 24.2 13.66 24.04 13.68C23.88 13.7 23.73 13.73 23.57 13.76C23.41 13.79 23.25 13.81 23.08 13.84C22.93 13.86 22.77 13.89 22.62 13.91C22.46 13.94 22.3 13.96 22.13 13.99C21.97 14.01 21.82 14.04 21.66 14.06C21.49 14.09 21.32 14.11 21.16 14.14C20.93 14.18 20.69 14.21 20.46 14.25C20.21 14.3 19.95 14.31 19.7 14.4C19.38 14.52 19.16 14.74 19.02 15.05C18.95 15.21 18.93 15.38 18.93 15.55C18.93 19.53 18.93 23.52 18.93 27.5H16.85C16.49 27.5 16.14 27.52 15.79 27.58C15.22 27.67 14.69 27.85 14.2 28.13C13.5 28.52 12.94 29.06 12.53 29.74C12.37 30.01 12.25 30.29 12.15 30.59C12.06 30.87 12.01 31.16 11.98 31.45C11.96 31.67 11.96 31.89 11.99 32.11C12.01 32.26 12.03 32.41 12.06 32.56C12.1 32.76 12.15 32.95 12.22 33.14C12.36 33.51 12.55 33.85 12.78 34.16C13.19 34.71 13.69 35.13 14.29 35.45C14.59 35.61 14.91 35.74 15.24 35.83C15.71 35.97 16.07 35.99 16.15 36C16.23 36 16.3 36 16.35 36C16.49 36 16.63 36 16.76 36C16.83 36 16.93 36 17.05 36C17.42 35.98 17.69 35.91 17.83 35.87C18.26 35.76 18.68 35.6 19.07 35.37C19.48 35.14 19.85 34.85 20.16 34.5C20.53 34.1 20.82 33.65 21.01 33.14C21.11 32.87 21.18 32.6 21.22 32.32C21.26 32.09 21.27 31.86 21.27 31.63C21.27 28.19 21.27 24.76 21.27 21.32V21.25C21.27 21.25 21.27 21.2 21.28 21.17L33.66 19.21C33.66 19.23 33.66 19.26 33.66 19.28C33.66 21.36 33.66 23.44 33.66 25.52C33.01 25.52 32.36 25.52 31.71 25.52C31.45 25.52 31.18 25.52 30.92 25.54C30.76 25.55 30.59 25.58 30.43 25.61C30.19 25.65 29.96 25.71 29.74 25.79C29.5 25.87 29.26 25.97 29.03 26.09C28.6 26.32 28.21 26.6 27.87 26.95C27.54 27.29 27.27 27.67 27.07 28.09C26.95 28.34 26.86 28.59 26.8 28.86C26.68 29.32 26.67 29.78 26.72 30.25C26.75 30.51 26.81 30.77 26.89 31.02C27 31.35 27.14 31.65 27.33 31.94C27.56 32.3 27.84 32.63 28.17 32.91C28.52 33.21 28.91 33.45 29.33 33.64C29.57 33.75 29.83 33.83 30.09 33.9C30.5 34.01 30.91 34.06 31.33 34.06C31.59 34.06 31.86 34.04 32.12 34C32.36 33.96 32.59 33.91 32.82 33.84C33.1 33.75 33.37 33.64 33.62 33.51C34.1 33.26 34.52 32.94 34.88 32.55C35.24 32.16 35.52 31.72 35.71 31.22C35.71 31.22 35.85 30.86 35.94 30.36C35.95 30.3 35.96 30.24 35.96 30.24C35.96 30.19 35.96 30.15 35.96 30.13V12.97C35.96 12.97 35.94 12.88 35.93 12.83C35.82 12.46 35.58 12.21 35.22 12.07H35.26Z" fill="#F9FAFB"/>
<path d="M7 0H2C0.9 0 0 0.9 0 2V46C0 47.1 0.9 48 2 48H7C7.55 48 8 47.55 8 47V45C8 44.45 7.55 44 7 44H5C4.45 44 4 43.55 4 43V5C4 4.45 4.45 4 5 4H7C7.55 4 8 3.55 8 3V1C8 0.45 7.55 0 7 0Z" fill="#F9FAFB"/>
<path d="M46 0H41C40.45 0 40 0.45 40 1V3C40 3.55 40.45 4 41 4H43C43.55 4 44 4.45 44 5V43C44 43.55 43.55 44 43 44H41C40.45 44 40 44.45 40 45V47C40 47.55 40.45 48 41 48H46C47.11 48 48 47.1 48 46V2C48 0.9 47.1 0 46 0Z" fill="#F9FAFB"/>
<path d="M66.9858 20.5653C66.9176 19.8778 66.625 19.3438 66.108 18.9631C65.5909 18.5824 64.8892 18.392 64.0028 18.392C63.4006 18.392 62.892 18.4773 62.4773 18.6477C62.0625 18.8125 61.7443 19.0426 61.5227 19.3381C61.3068 19.6335 61.1989 19.9688 61.1989 20.3438C61.1875 20.6562 61.2528 20.929 61.3949 21.1619C61.5426 21.3949 61.7443 21.5966 62 21.767C62.2557 21.9318 62.5511 22.0767 62.8864 22.2017C63.2216 22.321 63.5795 22.4233 63.9602 22.5085L65.5284 22.8835C66.2898 23.054 66.9886 23.2812 67.625 23.5653C68.2614 23.8494 68.8125 24.1989 69.2784 24.6136C69.7443 25.0284 70.1051 25.517 70.3608 26.0795C70.6222 26.642 70.7557 27.2869 70.7614 28.0142C70.7557 29.0824 70.483 30.0085 69.9432 30.7926C69.4091 31.571 68.6364 32.1761 67.625 32.608C66.6193 33.0341 65.4062 33.2472 63.9858 33.2472C62.5767 33.2472 61.3494 33.0312 60.304 32.5994C59.2642 32.1676 58.4517 31.5284 57.8665 30.6818C57.2869 29.8295 56.983 28.7756 56.9545 27.5199H60.5256C60.5653 28.1051 60.733 28.5938 61.0284 28.9858C61.3295 29.3722 61.7301 29.6648 62.2301 29.8636C62.7358 30.0568 63.3068 30.1534 63.9432 30.1534C64.5682 30.1534 65.1108 30.0625 65.571 29.8807C66.0369 29.6989 66.3977 29.446 66.6534 29.1222C66.9091 28.7983 67.0369 28.4261 67.0369 28.0057C67.0369 27.6136 66.9205 27.2841 66.6875 27.017C66.4602 26.75 66.125 26.5227 65.6818 26.3352C65.2443 26.1477 64.7074 25.9773 64.071 25.8239L62.1705 25.3466C60.6989 24.9886 59.5369 24.429 58.6847 23.6676C57.8324 22.9062 57.4091 21.8807 57.4148 20.5909C57.4091 19.5341 57.6903 18.6108 58.2585 17.821C58.8324 17.0312 59.6193 16.4148 60.6193 15.9716C61.6193 15.5284 62.7557 15.3068 64.0284 15.3068C65.3239 15.3068 66.4545 15.5284 67.4205 15.9716C68.392 16.4148 69.1477 17.0312 69.6875 17.821C70.2273 18.6108 70.5057 19.5256 70.5227 20.5653H66.9858Z" fill="#F9FAFB"/>
<path d="M78.6102 33.2557C77.2863 33.2557 76.1414 32.9744 75.1755 32.4119C74.2153 31.8437 73.4738 31.054 72.9511 30.0426C72.4284 29.0256 72.167 27.8466 72.167 26.5057C72.167 25.1534 72.4284 23.9716 72.9511 22.9602C73.4738 21.9432 74.2153 21.1534 75.1755 20.5909C76.1414 20.0227 77.2863 19.7386 78.6102 19.7386C79.9341 19.7386 81.0761 20.0227 82.0363 20.5909C83.0023 21.1534 83.7466 21.9432 84.2693 22.9602C84.792 23.9716 85.0534 25.1534 85.0534 26.5057C85.0534 27.8466 84.792 29.0256 84.2693 30.0426C83.7466 31.054 83.0023 31.8437 82.0363 32.4119C81.0761 32.9744 79.9341 33.2557 78.6102 33.2557ZM78.6272 30.4432C79.2295 30.4432 79.7324 30.2727 80.1358 29.9318C80.5392 29.5852 80.8432 29.1136 81.0477 28.517C81.2579 27.9205 81.363 27.2415 81.363 26.4801C81.363 25.7188 81.2579 25.0398 81.0477 24.4432C80.8432 23.8466 80.5392 23.375 80.1358 23.0284C79.7324 22.6818 79.2295 22.5085 78.6272 22.5085C78.0193 22.5085 77.5079 22.6818 77.0932 23.0284C76.6841 23.375 76.3744 23.8466 76.1642 24.4432C75.9596 25.0398 75.8574 25.7188 75.8574 26.4801C75.8574 27.2415 75.9596 27.9205 76.1642 28.517C76.3744 29.1136 76.6841 29.5852 77.0932 29.9318C77.5079 30.2727 78.0193 30.4432 78.6272 30.4432Z" fill="#F9FAFB"/>
<path d="M90.5649 25.4318V33H86.9342V19.9091H90.3944V22.2188H90.5478C90.8376 21.4574 91.3234 20.8551 92.0052 20.4119C92.687 19.9631 93.5137 19.7386 94.4853 19.7386C95.3944 19.7386 96.187 19.9375 96.8632 20.3352C97.5393 20.733 98.0649 21.3011 98.4399 22.0398C98.8149 22.7727 99.0024 23.6477 99.0024 24.6648V33H95.3717V25.3125C95.3774 24.5114 95.1728 23.8864 94.758 23.4375C94.3433 22.983 93.7722 22.7557 93.045 22.7557C92.5563 22.7557 92.1245 22.8608 91.7495 23.071C91.3802 23.2812 91.0904 23.5881 90.8802 23.9915C90.6757 24.3892 90.5705 24.8693 90.5649 25.4318Z" fill="#F9FAFB"/>
<path d="M107.282 38.1818C106.105 38.1818 105.097 38.0199 104.256 37.696C103.421 37.3778 102.756 36.9432 102.262 36.392C101.767 35.8409 101.446 35.2216 101.299 34.5341L104.657 34.0824C104.759 34.3438 104.921 34.5881 105.142 34.8153C105.364 35.0426 105.657 35.2244 106.02 35.3608C106.39 35.5028 106.838 35.5739 107.367 35.5739C108.157 35.5739 108.807 35.3807 109.319 34.9943C109.836 34.6136 110.094 33.9744 110.094 33.0767V30.6818H109.941C109.782 31.0455 109.543 31.3892 109.225 31.7131C108.907 32.0369 108.497 32.3011 107.997 32.5057C107.497 32.7102 106.901 32.8125 106.208 32.8125C105.225 32.8125 104.33 32.5852 103.523 32.1307C102.722 31.6705 102.083 30.9688 101.605 30.0256C101.134 29.0767 100.898 27.8778 100.898 26.429C100.898 24.946 101.14 23.7074 101.622 22.7131C102.105 21.7188 102.747 20.9744 103.549 20.4801C104.355 19.9858 105.239 19.7386 106.199 19.7386C106.932 19.7386 107.546 19.8636 108.04 20.1136C108.534 20.358 108.932 20.6648 109.233 21.0341C109.54 21.3977 109.776 21.7557 109.941 22.108H110.077V19.9091H113.682V33.1278C113.682 34.2415 113.409 35.1733 112.864 35.9233C112.319 36.6733 111.563 37.2358 110.597 37.6108C109.637 37.9915 108.532 38.1818 107.282 38.1818ZM107.358 30.0852C107.944 30.0852 108.438 29.9403 108.841 29.6506C109.25 29.3551 109.563 28.9347 109.779 28.3892C110 27.8381 110.111 27.179 110.111 26.4119C110.111 25.6449 110.003 24.9801 109.787 24.4176C109.571 23.8494 109.259 23.4091 108.85 23.0966C108.441 22.7841 107.944 22.6278 107.358 22.6278C106.762 22.6278 106.259 22.7898 105.85 23.1136C105.441 23.4318 105.131 23.875 104.921 24.4432C104.711 25.0114 104.605 25.6676 104.605 26.4119C104.605 27.1676 104.711 27.821 104.921 28.3722C105.137 28.9176 105.446 29.3409 105.85 29.642C106.259 29.9375 106.762 30.0852 107.358 30.0852Z" fill="#F9FAFB"/>
<path d="M131.56 21.6562H127.827C127.759 21.1733 127.62 20.7443 127.41 20.3693C127.199 19.9886 126.929 19.6648 126.6 19.3977C126.27 19.1307 125.89 18.9261 125.458 18.7841C125.032 18.642 124.569 18.571 124.069 18.571C123.165 18.571 122.378 18.7955 121.708 19.2443C121.037 19.6875 120.518 20.3352 120.148 21.1875C119.779 22.0341 119.594 23.0625 119.594 24.2727C119.594 25.517 119.779 26.5625 120.148 27.4091C120.523 28.2557 121.046 28.8949 121.716 29.3267C122.387 29.7585 123.162 29.9744 124.043 29.9744C124.537 29.9744 124.995 29.9091 125.415 29.7784C125.841 29.6477 126.219 29.4574 126.549 29.2074C126.878 28.9517 127.151 28.642 127.367 28.2784C127.589 27.9148 127.742 27.5 127.827 27.0341L131.56 27.0511C131.464 27.8523 131.222 28.625 130.836 29.3693C130.455 30.108 129.941 30.7699 129.293 31.3551C128.651 31.9347 127.884 32.3949 126.992 32.7358C126.106 33.071 125.103 33.2386 123.983 33.2386C122.427 33.2386 121.035 32.8864 119.807 32.1818C118.586 31.4773 117.62 30.4574 116.91 29.1222C116.205 27.7869 115.853 26.1705 115.853 24.2727C115.853 22.3693 116.211 20.75 116.927 19.4148C117.643 18.0795 118.614 17.0625 119.841 16.3636C121.069 15.6591 122.449 15.3068 123.983 15.3068C124.995 15.3068 125.932 15.4489 126.796 15.733C127.665 16.017 128.435 16.4318 129.106 16.9773C129.776 17.517 130.321 18.179 130.742 18.9631C131.168 19.7472 131.441 20.6449 131.56 21.6562Z" fill="#F9FAFB"/>
<path d="M137.289 25.4318V33H133.658V15.5455H137.187V22.2188H137.34C137.636 21.446 138.113 20.8409 138.772 20.4034C139.431 19.9602 140.258 19.7386 141.252 19.7386C142.161 19.7386 142.954 19.9375 143.63 20.3352C144.312 20.7273 144.84 21.2926 145.215 22.0312C145.596 22.7642 145.783 23.642 145.778 24.6648V33H142.147V25.3125C142.153 24.5057 141.948 23.8778 141.533 23.429C141.124 22.9801 140.55 22.7557 139.812 22.7557C139.317 22.7557 138.88 22.8608 138.499 23.071C138.124 23.2812 137.829 23.5881 137.613 23.9915C137.403 24.3892 137.295 24.8693 137.289 25.4318Z" fill="#F9FAFB"/>
<path d="M151.888 33.2472C151.053 33.2472 150.308 33.1023 149.655 32.8125C149.001 32.517 148.484 32.0824 148.104 31.5085C147.729 30.929 147.541 30.2074 147.541 29.3438C147.541 28.6165 147.675 28.0057 147.942 27.5114C148.209 27.017 148.572 26.6193 149.033 26.3182C149.493 26.017 150.016 25.7898 150.601 25.6364C151.192 25.483 151.811 25.375 152.459 25.3125C153.22 25.233 153.834 25.1591 154.3 25.0909C154.766 25.017 155.104 24.9091 155.314 24.767C155.524 24.625 155.629 24.4148 155.629 24.1364V24.0852C155.629 23.5455 155.459 23.1278 155.118 22.8324C154.783 22.5369 154.305 22.3892 153.686 22.3892C153.033 22.3892 152.513 22.5341 152.126 22.8239C151.74 23.108 151.484 23.4659 151.359 23.8977L148.001 23.625C148.172 22.8295 148.507 22.142 149.007 21.5625C149.507 20.9773 150.152 20.5284 150.942 20.2159C151.737 19.8977 152.658 19.7386 153.703 19.7386C154.43 19.7386 155.126 19.8239 155.791 19.9943C156.462 20.1648 157.055 20.429 157.572 20.7869C158.095 21.1449 158.507 21.6051 158.808 22.1676C159.109 22.7244 159.26 23.392 159.26 24.1705V33H155.817V31.1847H155.714C155.504 31.5938 155.223 31.9545 154.871 32.267C154.518 32.5739 154.095 32.8153 153.601 32.9915C153.107 33.1619 152.535 33.2472 151.888 33.2472ZM152.928 30.7415C153.462 30.7415 153.933 30.6364 154.342 30.4261C154.751 30.2102 155.072 29.9205 155.305 29.5568C155.538 29.1932 155.655 28.7812 155.655 28.321V26.9318C155.541 27.0057 155.385 27.0739 155.186 27.1364C154.993 27.1932 154.774 27.2472 154.53 27.2983C154.285 27.3438 154.041 27.3864 153.797 27.4261C153.553 27.4602 153.331 27.4915 153.132 27.5199C152.706 27.5824 152.334 27.6818 152.016 27.8182C151.697 27.9545 151.45 28.1392 151.274 28.3722C151.098 28.5994 151.01 28.8835 151.01 29.2244C151.01 29.7188 151.189 30.0966 151.547 30.358C151.91 30.6136 152.371 30.7415 152.928 30.7415Z" fill="#F9FAFB"/>
<path d="M161.597 33V19.9091H165.117V22.1932H165.253C165.492 21.3807 165.892 20.767 166.455 20.3523C167.017 19.9318 167.665 19.7216 168.398 19.7216C168.58 19.7216 168.776 19.733 168.986 19.7557C169.196 19.7784 169.381 19.8097 169.54 19.8494V23.071C169.369 23.0199 169.134 22.9744 168.832 22.9347C168.531 22.8949 168.256 22.875 168.006 22.875C167.472 22.875 166.994 22.9915 166.574 23.2244C166.159 23.4517 165.83 23.7699 165.585 24.179C165.347 24.5881 165.227 25.0597 165.227 25.5938V33H161.597Z" fill="#F9FAFB"/>
<path d="M178.556 19.9091V22.6364H170.673V19.9091H178.556ZM172.463 16.7727H176.093V28.9773C176.093 29.3125 176.144 29.5739 176.247 29.7614C176.349 29.9432 176.491 30.071 176.673 30.1449C176.86 30.2188 177.076 30.2557 177.321 30.2557C177.491 30.2557 177.661 30.2415 177.832 30.2131C178.002 30.179 178.133 30.1534 178.224 30.1364L178.795 32.8381C178.613 32.8949 178.357 32.9602 178.028 33.0341C177.698 33.1136 177.298 33.1619 176.826 33.179C175.951 33.2131 175.184 33.0966 174.525 32.8295C173.872 32.5625 173.363 32.1477 172.999 31.5852C172.636 31.0227 172.457 30.3125 172.463 29.4545V16.7727Z" fill="#F9FAFB"/>
</svg>
